<?xml version="1.0" encoding="utf-8"?>
<!-- Generator: Adobe Illustrator 19.1.0, SVG Export Plug-In . SVG Version: 6.00 Build 0)  -->
<svg version="1.1" id="Layer_1" xmlns="http://www.w3.org/2000/svg" xmlns:xlink="http://www.w3.org/1999/xlink" x="0px" y="0px"
	 viewBox="0 0 360 144" style="enable-background:new 0 0 360 144;" xml:space="preserve">
<style type="text/css">
	.st0{fill:#507894;}
	.st1{fill:#1A244F;}
	.st2{fill:#010101;}
	.st3{fill:#FFFFFF;}
</style>
<g>
	<g>
		<g>
			<path class="st3" d="M145.7,90l1,4.1l0.1,0l1.3-4.1l4.5-14.1h1L158,90l1.3,4.1l0.1,0l1.1-4.1l4-14.1h1.2l-5.8,19.8h-1L154,80.8
				l-0.9-3.4H153l-1,3.4l-4.8,14.9h-1l-5.8-19.8h1.1L145.7,90z"/>
			<path class="st3" d="M176.3,96.1c-2.3,0-4.2-0.9-5.9-2.7c-1.6-1.8-2.5-4.1-2.5-6.8v-1.2c0-2.8,0.8-5.2,2.4-7.1
				c1.6-1.9,3.6-2.8,5.9-2.8c2.2,0,4.1,0.7,5.5,2.2c1.4,1.5,2.1,3.4,2.1,5.9v1.5h-14.9v0.2v1.2c0,2.4,0.7,4.4,2.1,6.1
				c1.4,1.7,3.1,2.5,5.2,2.5c1.5,0,2.7-0.2,3.7-0.6c1-0.4,1.8-1,2.6-1.8l0.5,0.8c-0.8,0.9-1.7,1.5-2.9,2
				C179.1,95.9,177.8,96.1,176.3,96.1z M176.2,76.5c-2,0-3.6,0.7-4.9,2.2c-1.3,1.4-2,3.2-2.2,5.4l0.1,0.1h13.7v-0.6
				c0-2-0.6-3.7-1.8-5C179.8,77.2,178.2,76.5,176.2,76.5z"/>
			<path class="st3" d="M200.4,90.9c0-1.1-0.4-2-1.3-2.9c-0.9-0.9-2.5-1.5-4.7-2c-2.4-0.5-4.1-1.1-5.1-1.9c-1.1-0.8-1.6-2-1.6-3.5
				c0-1.4,0.6-2.6,1.8-3.6c1.2-1,2.8-1.4,4.8-1.4c2.2,0,3.9,0.5,5.2,1.5c1.3,1,1.9,2.4,1.8,4l0,0.1h-0.8c0-1.3-0.5-2.4-1.6-3.3
				c-1.1-0.9-2.6-1.4-4.4-1.4c-1.9,0-3.3,0.4-4.2,1.2c-1,0.8-1.4,1.7-1.4,2.8c0,1,0.4,1.9,1.2,2.7c0.8,0.7,2.4,1.4,4.8,1.9
				c2.2,0.5,3.9,1.2,5,2.1c1.1,0.9,1.7,2.1,1.7,3.7c0,1.6-0.6,2.8-1.9,3.8c-1.3,1-3,1.4-5.1,1.4c-2.3,0-4.1-0.5-5.4-1.5
				c-1.3-1-1.9-2.3-1.8-3.8l0-0.1h0.8c0.1,1.6,0.8,2.7,2,3.4c1.2,0.7,2.7,1,4.4,1c1.8,0,3.3-0.4,4.4-1.3
				C199.9,93,200.4,92,200.4,90.9z"/>
			<path class="st3" d="M208.6,70.5v5.4h4.9v1h-4.9v13.7c0,1.6,0.3,2.8,0.8,3.5c0.6,0.7,1.3,1,2.2,1c0.3,0,0.6,0,0.9,0
				c0.3,0,0.6-0.1,1.1-0.1l0.2,0.9c-0.3,0.1-0.6,0.2-1,0.2c-0.3,0-0.7,0.1-1.1,0.1c-1.3,0-2.3-0.4-3-1.3c-0.7-0.9-1-2.3-1-4.2V76.9
				h-3.7v-1h3.7v-5.4H208.6z"/>
			<path class="st3" d="M224.5,96.1c-2.3,0-4.2-0.9-5.9-2.7c-1.6-1.8-2.5-4.1-2.5-6.8v-1.2c0-2.8,0.8-5.2,2.4-7.1s3.6-2.8,5.9-2.8
				c2.2,0,4.1,0.7,5.5,2.2c1.4,1.5,2.1,3.4,2.1,5.9v1.5h-14.9v0.2v1.2c0,2.4,0.7,4.4,2.1,6.1c1.4,1.7,3.1,2.5,5.2,2.5
				c1.5,0,2.7-0.2,3.7-0.6c1-0.4,1.8-1,2.6-1.8l0.5,0.8c-0.8,0.9-1.7,1.5-2.9,2C227.4,95.9,226.1,96.1,224.5,96.1z M224.5,76.5
				c-2,0-3.6,0.7-4.9,2.2s-2,3.2-2.2,5.4l0.1,0.1h13.7v-0.6c0-2-0.6-3.7-1.8-5C228,77.2,226.4,76.5,224.5,76.5z"/>
			<path class="st3" d="M245.4,76.6l-1.3-0.1c-1.8,0-3.2,0.6-4.3,1.7c-1.1,1.1-1.8,2.6-2.2,4.5v13h-1V75.9h0.8l0.2,3.4V80
				c0.6-1.4,1.4-2.5,2.5-3.3c1.1-0.8,2.4-1.2,4-1.2c0.3,0,0.5,0,0.8,0.1c0.2,0,0.4,0.1,0.6,0.1L245.4,76.6z"/>
			<path class="st3" d="M249.9,75.9L250,80c0.6-1.4,1.5-2.5,2.6-3.3c1.1-0.8,2.6-1.2,4.3-1.2c2.2,0,3.8,0.7,4.9,2s1.6,3.5,1.6,6.5
				v11.7h-1V84c0-2.8-0.5-4.7-1.5-5.8c-1-1.1-2.3-1.7-4-1.7c-2.1,0-3.8,0.6-4.8,1.9c-1.1,1.3-1.8,2.9-2,4.9v12.4h-1V75.9H249.9z"/>
			<path class="st3" d="M281.4,92c1,0,1.7-0.3,2.3-0.8c0.6-0.6,0.9-1.3,0.9-2.2h4.9l0.1,0.1c0,2-0.7,3.7-2.3,5c-1.6,1.4-3.5,2-5.8,2
				c-3,0-5.2-0.9-6.8-2.8s-2.4-4.3-2.4-7.2v-0.6c0-2.9,0.8-5.3,2.4-7.2c1.6-1.9,3.9-2.8,6.8-2.8c2.4,0,4.4,0.7,5.9,2.1
				c1.5,1.4,2.2,3.2,2.2,5.5l0,0.1h-4.9c0-1-0.3-1.9-0.8-2.6c-0.6-0.7-1.3-1-2.3-1c-1.4,0-2.4,0.5-3,1.6c-0.6,1.1-0.9,2.5-0.9,4.2
				v0.5c0,1.8,0.3,3.2,0.9,4.3C279,91.4,280,92,281.4,92z"/>
			<path class="st3" d="M291.8,85.6c0-3,0.8-5.4,2.5-7.3c1.6-1.9,3.9-2.8,6.9-2.8c2.9,0,5.2,0.9,6.9,2.8c1.7,1.9,2.5,4.3,2.5,7.3V86
				c0,3-0.8,5.4-2.5,7.3c-1.7,1.9-3.9,2.8-6.9,2.8c-2.9,0-5.2-0.9-6.9-2.8c-1.7-1.9-2.5-4.3-2.5-7.3V85.6z M297.1,86
				c0,1.8,0.3,3.3,1,4.3c0.6,1.1,1.7,1.6,3.1,1.6c1.4,0,2.4-0.5,3-1.6s1-2.5,1-4.3v-0.4c0-1.8-0.3-3.2-1-4.3
				c-0.6-1.1-1.7-1.7-3.1-1.7c-1.4,0-2.4,0.6-3,1.7c-0.6,1.1-1,2.5-1,4.3V86z"/>
			<path class="st3" d="M312.6,86c0-3.1,0.7-5.7,2-7.6c1.4-1.9,3.3-2.9,5.7-2.9c1,0,1.9,0.2,2.7,0.6c0.8,0.4,1.5,1,2.1,1.8V67.1h5.4
				v28.6h-4.6l-0.4-2.4c-0.6,0.9-1.4,1.6-2.2,2.1c-0.8,0.5-1.8,0.7-2.9,0.7c-2.4,0-4.3-0.9-5.7-2.7c-1.4-1.8-2-4.1-2-7.1V86z
				 M318,86.4c0,1.7,0.3,3.1,0.9,4.1c0.6,1,1.5,1.5,2.9,1.5c0.8,0,1.4-0.2,2-0.5c0.6-0.3,1-0.8,1.4-1.4v-8.5
				c-0.4-0.6-0.8-1.1-1.4-1.5c-0.6-0.4-1.2-0.5-2-0.5c-1.3,0-2.3,0.6-2.9,1.8c-0.6,1.2-0.9,2.7-0.9,4.6V86.4z"/>
			<path class="st3" d="M342.9,96.1c-2.9,0-5.1-0.9-6.9-2.7c-1.7-1.8-2.6-4.2-2.6-7v-0.7c0-2.9,0.8-5.4,2.4-7.3
				c1.6-1.9,3.8-2.9,6.5-2.8c2.7,0,4.8,0.8,6.2,2.4c1.5,1.6,2.2,3.8,2.2,6.5v2.9H339l0,0.1c0.1,1.3,0.5,2.4,1.3,3.2
				c0.8,0.8,1.8,1.3,3.2,1.3c1.2,0,2.2-0.1,3-0.4c0.8-0.2,1.6-0.6,2.6-1.1l1.4,3.3c-0.8,0.7-1.9,1.2-3.2,1.6
				C345.9,95.9,344.5,96.1,342.9,96.1z M342.4,79.6c-1,0-1.8,0.4-2.3,1.1c-0.6,0.8-0.9,1.8-1.1,3l0.1,0.1h6.6v-0.5
				c0-1.1-0.3-2-0.8-2.7S343.5,79.6,342.4,79.6z"/>
		</g>
	</g>
	<g>
		<polygon class="st3" points="46.7,81.6 32.8,39.8 9.2,39.8 35.2,109.6 		"/>
		<polygon class="st3" points="116.6,39.8 102.3,82.9 101.9,82.9 92.5,54.3 80.3,83.6 92.7,116.7 111.5,116.7 140.2,39.8 		"/>
		<polygon class="st3" points="38,116.7 60.8,116.7 97.9,27.3 74.9,27.3 		"/>
	</g>
</g>
</svg>
